<svg xmlns="http://www.w3.org/2000/svg" xmlns:xlink="http://www.w3.org/1999/xlink" viewBox="0,0,256,256" width="50px" height="50px"><g fill="#ffffff" fill-rule="nonzero" stroke="none" stroke-width="1" stroke-linecap="butt" stroke-linejoin="miter" stroke-miterlimit="10" stroke-dasharray="" stroke-dashoffset="0" font-family="none" font-weight="none" font-size="none" text-anchor="none" style="mix-blend-mode: normal"><g transform="scale(5.12,5.12)"><path d="M22.5,4c-3.866,0 -7,3.134 -7,7v20c0,3.866 3.134,7 7,7h20c3.866,0 7,-3.134 7,-7v-20c0,-3.866 -3.134,-7 -7,-7zM22.5,9h20c1.10457,0 2,0.89543 2,2v20c0,1.10457 -0.89543,2 -2,2h-20c-1.10457,0 -2,-0.89543 -2,-2v-20c0,-1.10457 0.89543,-2 2,-2zM28,11.5c-2.62381,0 -4.75,2.12619 -4.75,4.75c0,2.62381 2.12619,4.75 4.75,4.75c2.62381,0 4.75,-2.12619 4.75,-4.75c0,-2.62381 -2.12619,-4.75 -4.75,-4.75zM36,13.5c-0.82843,0 -1.5,0.67157 -1.5,1.5c0,0.82843 0.67157,1.5 1.5,1.5c0.82843,0 1.5,-0.67157 1.5,-1.5c0,-0.82843 -0.67157,-1.5 -1.5,-1.5zM28,16c1.38071,0 2.5,1.11929 2.5,2.5c0,1.38071 -1.11929,2.5 -2.5,2.5c-1.38071,0 -2.5,-1.11929 -2.5,-2.5c0,-1.38071 1.11929,-2.5 2.5,-2.5z"></path></g></g></svg>
