<svg xmlns="http://www.w3.org/2000/svg" xmlns:xlink="http://www.w3.org/1999/xlink" viewBox="0,0,256,256" width="50px" height="50px"><g fill="#222222" fill-rule="nonzero" stroke="none" stroke-width="1" stroke-linecap="butt" stroke-linejoin="miter" stroke-miterlimit="10" stroke-dasharray="" stroke-dashoffset="0" font-family="none" font-weight="none" font-size="none" text-anchor="none" style="mix-blend-mode: normal"><g transform="scale(5.12,5.12)"><path d="M22.5,4c-3.866,0 -7,3.134 -7,7v28c0,3.866 3.134,7 7,7h28c3.866,0 7,-3.134 7,-7v-28c0,-3.866 -3.134,-7 -7,-7zM36,11c-2.761,0 -5,2.239 -5,5s2.239,5 5,5s5,-2.239 5,-5s-2.239,-5 -5,-5zM37.5,15.5c0.276,0 0.5,0.224 0.5,0.5s-0.224,0.5 -0.5,0.5s-0.5,-0.224 -0.5,-0.5s0.224,-0.5 0.5,-0.5zM34,21c-1.657,0 -3,1.343 -3,3s1.343,3 3,3s3,-1.343 3,-3s-1.343,-3 -3,-3zM33,31h4v1h-4zM24,14h2v1h-2z"></path></g></g></svg>
